<svg width="1920" height="1080" viewBox="0 0 1920 1080" fill="none" xmlns="http://www.w3.org/2000/svg">
<g clip-path="url(#clip0_1_5)">
<rect width="1920" height="1080" fill="white"/>
<path d="M1920 218H0V0H1920V218Z" fill="url(#paint0_linear_1_5)"/>
<path d="M1297 207V218.5H622V210H652.5V198H695V179.5H722V171.5H747V198H753V158.5H791.5V169.5H797V124H843.5V152H858.5V115.5L891 81.5V171.5L894.5 79L901 76V38.5L917.5 15L920 29.5L935 57L941.5 198V70L977 98V166.5H987.5V76H1028.5V127.5H1089V163H1119.5V130H1157.5V183.5H1196V189.5H1232V207H1297Z" fill="url(#paint1_linear_1_5)"/>
<path d="M1089 127.5V163V180H1016V127.5H1028.5H1089Z" fill="url(#paint2_linear_1_5)"/>
<path d="M791.5 158.5V169.5V202.5H753V158.5H791.5Z" fill="url(#paint3_linear_1_5)"/>
<path d="M753 175L747 171.5V198H753V175Z" fill="#C8E0D6"/>
<path d="M843.5 124V183.5V185H797V124H843.5Z" fill="url(#paint4_linear_1_5)"/>
<path d="M858.5 115.586L891.5 81V181.5H858.5V152.716V115.586Z" fill="url(#paint5_linear_1_5)"/>
<path d="M977 98V218.5H938V173.5L941.5 70L977 98Z" fill="url(#paint6_linear_1_5)"/>
<path d="M920 29.5L935 57L936.544 90.5L917.5 87V15L920 29.5Z" fill="url(#paint7_linear_1_5)"/>
<path d="M936.544 90.5L941.5 198L943 218.5H917.5V87V72.5C924.797 73.1271 928.904 75.5949 936.291 85L936.544 90.5Z" fill="url(#paint8_linear_1_5)"/>
<path d="M1157.5 130V183.5V218.5H1119.5V130H1157.5Z" fill="url(#paint9_linear_1_5)"/>
<path d="M248.065 200.302C150.714 181.667 97.3373 172.255 0 175.702V338.361H1920V175.702C1906 175.702 1886.02 184.285 1876.99 187.751C1825.98 207.33 1748.96 200.302 1671.44 187.751C1541.28 166.679 1472.25 180.708 1301.84 206.326C1198.31 221.889 890.232 218.375 770.201 211.346C607.537 201.822 578.151 203.816 481.625 211.346C366.464 220.331 355.593 220.885 248.065 200.302Z" fill="url(#paint10_linear_1_5)"/>
<path d="M578.301 260.587C339.872 222.996 211.849 236.89 0 286.155V494.707H1920V282.645C1825.63 298.696 1768.42 286.155 1682.88 275.126C1470.23 247.709 1370.13 247.93 1195.62 275.126C964.002 311.221 810.422 297.184 578.301 260.587Z" fill="url(#paint11_radial_1_5)"/>
<path d="M440 417.946C266.306 349.472 166.229 359.891 0 409.426V1080H1920V409.426C1884.66 412.602 1868.15 420.825 1837.5 431.978C1691.5 485.103 1591 453.028 1415.5 402.409C1226.57 347.917 1118.98 396.537 936 431.978C729 472.073 604 482.598 440 417.946Z" fill="#8EA84A"/>
</g>
<defs>
<linearGradient id="paint0_linear_1_5" x1="960" y1="0" x2="960" y2="218" gradientUnits="userSpaceOnUse">
<stop stop-color="#76A29C"/>
<stop offset="1" stop-color="#FEF4DC"/>
</linearGradient>
<linearGradient id="paint1_linear_1_5" x1="959.5" y1="15" x2="959.5" y2="218.5" gradientUnits="userSpaceOnUse">
<stop stop-color="#417889"/>
<stop offset="0.63537" stop-color="#6EADB5"/>
<stop offset="1" stop-color="#D0E5D9"/>
</linearGradient>
<linearGradient id="paint2_linear_1_5" x1="959.5" y1="15" x2="958.5" y2="217.5" gradientUnits="userSpaceOnUse">
<stop stop-color="#417889"/>
<stop offset="0.501331" stop-color="#6EADB5"/>
<stop offset="0.814036" stop-color="#9DC8C6"/>
<stop offset="1" stop-color="#D0E5D9"/>
</linearGradient>
<linearGradient id="paint3_linear_1_5" x1="959.5" y1="15" x2="957.5" y2="215.5" gradientUnits="userSpaceOnUse">
<stop stop-color="#417889"/>
<stop offset="0.761833" stop-color="#6EADB5"/>
<stop offset="1" stop-color="#D0E5D9"/>
</linearGradient>
<linearGradient id="paint4_linear_1_5" x1="959.5" y1="15" x2="959.5" y2="218.5" gradientUnits="userSpaceOnUse">
<stop stop-color="#417889"/>
<stop offset="0.694775" stop-color="#6EADB5"/>
<stop offset="0.957354" stop-color="#D0E5D9"/>
</linearGradient>
<linearGradient id="paint5_linear_1_5" x1="961.054" y1="13.3534" x2="960.5" y2="218.5" gradientUnits="userSpaceOnUse">
<stop stop-color="#417889"/>
<stop offset="0.692991" stop-color="#6EADB5"/>
<stop offset="0.948333" stop-color="#D0E5D9"/>
</linearGradient>
<linearGradient id="paint6_linear_1_5" x1="959.5" y1="15.0001" x2="959.5" y2="218.5" gradientUnits="userSpaceOnUse">
<stop stop-color="#417889"/>
<stop offset="0.722022" stop-color="#6EADB5"/>
<stop offset="1" stop-color="#D0E5D9"/>
</linearGradient>
<linearGradient id="paint7_linear_1_5" x1="959.5" y1="15" x2="959.5" y2="218.5" gradientUnits="userSpaceOnUse">
<stop stop-color="#ABCEBF"/>
<stop offset="0.366475" stop-color="#BDD5CB"/>
<stop offset="1" stop-color="#D0E5D9"/>
</linearGradient>
<linearGradient id="paint8_linear_1_5" x1="959.5" y1="15" x2="959.5" y2="218.5" gradientUnits="userSpaceOnUse">
<stop stop-color="#ABCEBF"/>
<stop offset="0.299786" stop-color="#89BAAB"/>
<stop offset="1" stop-color="#D0E5D9"/>
</linearGradient>
<linearGradient id="paint9_linear_1_5" x1="959.5" y1="14.9999" x2="959.5" y2="218.5" gradientUnits="userSpaceOnUse">
<stop stop-color="#417889"/>
<stop offset="0.505812" stop-color="#6EADB5"/>
<stop offset="1" stop-color="#D0E5D9"/>
</linearGradient>
<linearGradient id="paint10_linear_1_5" x1="0" y1="256.681" x2="1920" y2="256.681" gradientUnits="userSpaceOnUse">
<stop stop-color="#CADB84"/>
<stop offset="0.322124" stop-color="#CADB84"/>
<stop offset="0.497485" stop-color="#D5DCBA"/>
<stop offset="0.670132" stop-color="#CADB84"/>
<stop offset="1" stop-color="#CADB84"/>
</linearGradient>
<radialGradient id="paint11_radial_1_5" cx="0" cy="0" r="1" gradientUnits="userSpaceOnUse" gradientTransform="translate(960 285.653) scale(362.689 48.2763)">
<stop stop-color="#CCD8A5"/>
<stop offset="1" stop-color="#ABC067"/>
</radialGradient>
<clipPath id="clip0_1_5">
<rect width="1920" height="1080" fill="white"/>
</clipPath>
</defs>
</svg>
